<svg width="759" height="88" viewBox="0 0 759 88" fill="none" xmlns="http://www.w3.org/2000/svg">
<path d="M61.345 63.408C57.505 72.752 49.313 81.072 39.329 84.272C32.673 86.448 25.761 85.936 19.361 82.864C13.345 80.048 8.22499 75.184 5.153 69.04C1.44099 61.488 0.288995 52.528 1.56899 43.952C2.97699 34.864 6.689 26.288 12.577 19.888C15.265 17.072 18.209 14.384 22.049 13.744C23.073 9.64799 25.377 5.03999 29.601 2.864C34.977 0.0479965 39.841 1.2 44.321 3.632C48.929 6.19199 54.049 10.8 56.993 15.024C61.857 21.68 64.161 29.488 65.057 37.68C65.953 46.384 64.545 55.6 61.345 63.408ZM55.457 20.144C52.001 13.616 45.601 7.47199 39.073 5.808C36.641 5.168 34.081 5.03999 31.649 6.448C28.833 8.112 26.145 10.928 25.377 13.872C28.065 14.256 30.881 15.792 31.649 18.48C32.033 19.376 31.777 20.272 31.009 21.296C30.369 20.912 30.241 20.656 29.857 20.4L28.961 19.632C28.449 18.992 27.937 18.48 27.425 18.224C25.121 16.944 21.921 17.584 19.745 18.864C8.22499 28.08 4.897 41.776 5.665 55.856C6.049 61.616 8.35299 67.376 12.065 71.856C15.137 75.568 19.105 78.64 23.585 80.176C29.857 82.352 36.385 81.712 41.761 79.024C47.905 75.952 52.897 70.704 55.969 64.816C60.065 57.264 61.217 48.432 60.705 39.6C60.193 32.56 58.657 26.032 55.457 20.144ZM108.537 42.032C105.209 41.264 101.881 40.496 98.425 40.368C95.609 43.952 94.201 48.176 93.433 52.656C92.537 57.264 92.665 62.128 92.409 66.864C92.153 73.264 92.665 79.408 93.433 85.424C93.049 86.192 91.897 86.704 91.001 86.192C88.825 83.504 88.313 80.048 88.185 76.592C88.057 68.912 87.929 60.848 89.081 53.296C89.849 48.432 91.257 43.952 94.201 39.856C86.265 39.472 78.969 41.136 71.673 43.184C70.649 43.056 69.497 42.416 68.857 41.392C68.601 40.496 69.113 39.984 69.625 39.728L70.393 39.472L71.033 39.216C76.409 37.04 82.937 35.888 89.209 35.76C95.609 35.504 102.009 36.144 107.641 38.192C108.281 38.448 109.433 39.344 109.817 40.112C109.945 41.008 109.305 42.16 108.537 42.032ZM137.671 82.736C133.831 85.296 129.095 87.344 124.359 87.344C121.671 87.344 119.751 86.192 117.959 83.632C117.319 84.144 116.167 84.528 115.655 83.76C113.351 80.56 112.711 76.08 112.583 71.728C112.327 60.592 112.455 52.4 115.399 42.416C115.655 41.392 118.087 39.472 119.879 39.984C120.647 37.936 122.695 35.76 125.127 35.504C131.655 35.504 138.695 38.96 140.871 45.488C141.511 47.536 141.511 49.712 140.743 51.76C139.975 53.68 138.695 55.344 137.031 56.624L136.263 57.264C139.463 58.288 143.047 60.336 145.095 63.536C146.631 65.968 146.759 68.912 146.119 71.728C144.967 76.336 141.639 80.048 137.671 82.736ZM141.255 65.712C140.231 63.792 137.415 62.64 135.367 61.616C132.935 60.08 130.759 60.72 128.327 61.232L124.487 62.128C123.079 62.512 121.671 62.512 120.135 62.128C119.495 61.744 118.727 60.464 119.367 59.824C120.903 58.288 122.823 57.52 124.999 57.008L130.887 56.368C133.191 55.088 135.623 52.528 136.647 50.096C137.287 48.048 136.903 46.64 135.623 44.976C133.319 41.776 129.607 40.368 125.895 39.984C124.743 39.856 124.359 40.112 124.103 40.88C123.719 41.904 123.463 43.056 122.823 43.952C122.567 44.592 121.671 44.848 121.031 44.464C120.519 44.336 120.135 44.08 119.879 43.824C118.343 49.328 117.447 55.6 117.191 62.128C116.935 68.272 117.191 74.288 118.087 79.92C119.111 78.768 120.391 77.104 121.031 76.208C121.927 75.312 123.591 76.72 123.335 77.616C123.079 78.256 122.567 79.024 122.183 79.664C121.927 80.432 121.543 81.072 121.543 81.584C122.311 82.736 124.103 83.12 126.279 82.864C129.479 82.352 133.319 80.56 136.135 78.384C138.695 76.336 140.871 73.776 141.511 70.576C141.895 69.04 142.151 67.248 141.255 65.712ZM169.104 86.192C162.704 85.936 156.816 82.992 153.104 77.488C150.032 72.88 149.264 67.504 149.904 62.256C150.672 56.368 153.104 50.736 156.432 46.384C160.144 41.52 165.392 37.68 171.408 36.528C175.504 35.76 179.856 36.144 182.928 39.472C184.336 41.008 185.616 42.672 185.616 44.72C185.744 46.896 184.72 48.816 182.928 50.224C173.968 57.648 164.496 64.56 154.768 70.192C155.024 74.16 158.48 78.256 162.192 80.304C165.904 82.352 170.256 82.608 174.352 82.096C178.448 81.712 182.672 80.304 185.616 78.896C186.128 78.512 186.512 78.896 186.64 79.28C186.768 79.536 187.024 80.048 186.512 80.432C182.032 84.528 175.632 86.448 169.104 86.192ZM174.736 40.496C171.024 40.496 167.312 42.032 164.368 44.336C158.096 49.456 154.384 57.648 154.384 65.584C163.472 60.592 172.048 54.064 180.368 47.28C181.008 46.768 181.52 44.848 180.624 43.312C179.6 41.264 177.296 40.496 174.736 40.496ZM228.634 42.032C225.306 41.264 221.978 40.496 218.522 40.368C215.706 43.952 214.298 48.176 213.53 52.656C212.634 57.264 212.762 62.128 212.506 66.864C212.25 73.264 212.762 79.408 213.53 85.424C213.146 86.192 211.994 86.704 211.098 86.192C208.922 83.504 208.41 80.048 208.282 76.592C208.154 68.912 208.026 60.848 209.178 53.296C209.946 48.432 211.354 43.952 214.298 39.856C206.362 39.472 199.066 41.136 191.77 43.184C190.746 43.056 189.594 42.416 188.954 41.392C188.698 40.496 189.21 39.984 189.722 39.728L190.49 39.472L191.13 39.216C196.506 37.04 203.034 35.888 209.306 35.76C215.706 35.504 222.106 36.144 227.738 38.192C228.378 38.448 229.53 39.344 229.914 40.112C230.042 41.008 229.402 42.16 228.634 42.032ZM254.568 79.664C251.24 82.608 247.144 84.528 243.176 85.424C239.976 86.192 235.496 86.576 232.808 83.888C232.04 83.248 230.888 81.2 232.04 80.048C232.936 80.688 233.576 81.2 234.344 81.584C234.856 81.968 235.368 82.224 236.008 82.224C235.88 73.392 236.392 56.368 236.648 47.792C236.776 45.744 236.52 43.568 236.648 41.52C236.904 39.472 237.288 37.424 238.952 35.888C240.104 35.504 241.128 35.248 241.768 36.528C241.128 38.832 241.128 42.928 241 47.408C241 51.504 241 55.856 240.872 58.928C242.664 57.648 245.224 56.624 247.656 56.368C250.6 56.112 253.672 56.624 256.104 58.032C259.944 60.08 262.248 64.56 261.224 69.168C260.456 73.136 257.768 76.848 254.568 79.664ZM256.232 63.92C254.696 61.488 252.008 60.592 249.064 60.592C246.12 60.72 242.92 61.872 241 63.664L239.976 81.968C243.944 81.072 248.04 79.28 251.368 76.464C253.672 74.544 255.848 72.24 256.744 69.296C257.384 67.504 257.256 65.328 256.232 63.92ZM282.856 86.832C279.656 85.936 279.656 82.736 279.272 80.176C277.352 65.584 278.504 51.504 280.424 37.04C281.576 35.248 283.624 36.784 284.136 37.808C284.264 40.752 284.136 43.568 283.752 46.512C283.496 49.328 283.112 52.272 283.112 55.216C282.984 60.208 282.728 65.328 282.856 70.448C282.856 75.44 283.368 80.56 284.136 85.296C284.264 85.936 283.496 86.832 282.856 86.832ZM354.381 83.12C348.621 86.064 341.709 87.344 335.437 84.272C330.573 81.84 327.117 77.744 325.453 72.624C323.533 66.608 324.173 59.824 326.733 54.192C328.653 50.096 331.597 46.512 335.053 43.824C337.357 42.16 340.813 40.112 344.013 39.728C346.573 36.784 350.797 35.888 354.381 36.784C360.525 38.448 365.773 44.72 367.437 50.224C369.101 55.6 369.485 61.488 367.949 66.992C366.029 74.416 361.165 79.792 354.381 83.12ZM363.213 51.632C361.677 47.408 358.221 42.672 353.741 41.136C351.693 40.368 349.517 40.112 347.853 41.392C346.189 42.672 345.165 44.72 344.397 46.512C344.269 46.896 344.269 47.408 344.269 47.92C344.269 48.432 344.269 49.072 344.141 49.584C344.013 49.84 342.733 50.608 342.349 49.84C342.093 48.688 341.837 46.384 341.965 44.592C337.101 46.64 333.005 50.864 330.701 55.6C328.269 60.592 328.141 66.352 329.677 71.472C330.957 75.44 333.389 78.768 337.485 80.432C342.605 82.352 348.109 81.712 352.717 79.408C357.965 76.72 361.677 72.624 363.469 67.12C365.133 62.256 364.877 56.496 363.213 51.632ZM411.951 47.28C407.215 44.848 402.095 43.312 396.847 42.416C391.343 41.52 385.071 41.136 380.591 41.264C380.207 41.392 379.567 41.52 379.567 41.904C379.695 54.32 378.543 67.76 377.775 80.432C377.519 81.328 377.519 82.224 377.263 83.12C377.135 84.016 376.879 84.912 376.239 85.552C375.599 86.192 373.295 87.088 372.911 85.552C373.423 78 374.575 60.464 374.831 53.808L375.343 38.96C376.879 37.168 378.927 36.784 381.103 36.912C382.127 36.912 383.279 36.912 384.303 37.04C385.327 37.168 386.351 37.168 387.375 37.04C395.183 37.552 402.735 39.088 409.391 42.544C411.055 43.312 412.591 44.464 413.615 46.256C413.871 47.28 412.463 47.664 411.951 47.28ZM451.42 72.24C448.22 77.488 443.74 81.072 438.748 83.376C433.5 85.936 427.356 87.088 421.468 86.832C420.06 86.832 419.036 86.064 418.012 85.296C415.964 82.096 416.988 77.744 417.884 74.672C418.396 73.776 419.932 74.16 420.316 75.056C420.572 75.952 420.572 76.848 420.444 77.616C420.444 78.512 420.316 79.28 420.316 80.048C420.444 81.2 420.7 82.096 421.852 82.608C427.74 82.736 433.5 81.584 438.492 78.896C442.588 76.592 446.172 73.136 448.604 68.656C450.396 65.328 451.292 61.232 451.164 57.008C451.036 53.808 450.268 50.736 448.732 48.176C446.556 44.72 443.612 42.288 440.028 40.88C435.804 39.088 430.812 38.704 425.82 39.344C423.132 39.728 420.828 41.392 419.036 43.312L416.988 45.488C415.964 45.232 415.836 44.464 415.836 43.952C415.836 43.568 415.964 43.312 415.964 42.928V42.672C417.628 37.552 422.748 35.248 427.356 34.992C432.476 34.736 437.724 35.376 442.076 37.168C446.172 38.96 449.628 41.776 452.188 46C456.924 53.424 456.028 64.944 451.42 72.24ZM448.348 62.384V63.024C448.348 63.536 448.092 64.048 447.196 64.048C443.996 62.512 440.412 62.128 436.7 62.128C431.58 62 426.076 62.768 421.34 62.512C420.316 62.384 419.548 61.488 419.164 60.592C419.036 59.184 419.932 58.672 420.828 58.288C429.788 58.544 440.412 55.472 448.092 61.744C448.22 62 448.22 62.256 448.348 62.384ZM556.115 54.064C555.603 54.448 555.219 54.576 554.707 54.832C549.587 57.392 539.091 62.384 533.331 65.584C521.427 72.24 510.419 78.64 501.843 83.76C500.563 84.528 497.619 86.064 496.211 87.088C494.163 87.728 493.395 85.04 493.779 83.76C498.899 79.664 504.147 75.184 509.011 70.32C513.235 65.968 517.331 61.36 520.403 56.624C524.371 50.608 526.803 44.208 527.571 37.296C528.083 32.688 527.315 28.592 525.267 24.88C523.091 20.912 519.635 17.456 515.539 14.64C509.651 10.544 503.379 7.34399 496.339 6.064C495.571 5.936 494.931 6.064 494.163 6.31999C493.395 6.576 492.627 6.83199 491.475 6.448C490.963 5.424 491.219 4.52799 491.731 3.632L492.243 2.864C493.651 1.328 496.339 1.58399 498.003 1.96799C505.683 3.504 512.851 6.96 519.251 11.824C523.475 15.024 527.059 19.12 529.363 23.728C531.795 28.336 532.691 33.712 531.795 39.344C530.643 46.384 527.699 52.784 523.859 58.8C520.659 63.664 516.435 68.528 511.955 73.136C518.739 68.656 524.883 65.84 532.819 61.104C540.115 56.624 547.155 53.936 555.219 50.864C556.371 50.48 558.035 51.248 557.395 52.784C557.139 53.424 556.627 53.808 556.115 54.064ZM610.106 69.168C607.802 74.16 603.066 81.584 597.946 84.4C595.258 85.936 592.186 86.576 588.986 85.936C583.354 83.376 579.002 79.408 575.93 74.416C572.218 68.656 570.17 61.616 569.658 54.704C568.89 43.44 569.658 32.432 573.754 22.704C576.698 15.536 581.434 9.008 588.218 3.75999C588.986 3.376 589.754 2.73599 590.65 2.09599C591.546 1.58399 592.57 1.072 593.594 1.072C595.386 1.072 595.642 3.12 594.874 4.144C594.362 4.784 593.466 5.296 592.57 5.67999C591.93 6.064 591.29 6.31999 590.906 6.83199C596.794 9.13599 601.53 13.232 605.114 18.096C610.106 24.752 612.922 32.816 614.202 40.624C615.738 50.608 614.202 60.592 610.106 69.168ZM602.938 21.808C599.482 16.432 594.618 11.952 588.346 9.008C584.762 12.08 582.074 15.792 580.154 19.504C577.082 25.264 575.034 32.048 574.138 38.96C572.858 48.304 573.882 58.032 576.826 66.352C579.13 72.624 583.994 79.28 590.394 81.84C592.442 82.224 594.49 81.712 596.026 80.816C600.762 76.72 604.09 71.984 606.266 66.864C608.826 61.104 610.106 54.96 610.49 48.432C610.106 38.96 607.93 29.488 602.938 21.808ZM692.513 54.064C692.001 54.448 691.617 54.576 691.105 54.832C685.985 57.392 675.489 62.384 669.729 65.584C657.825 72.24 646.817 78.64 638.241 83.76C636.961 84.528 634.017 86.064 632.609 87.088C630.561 87.728 629.793 85.04 630.177 83.76C635.297 79.664 640.545 75.184 645.409 70.32C649.633 65.968 653.729 61.36 656.801 56.624C660.769 50.608 663.201 44.208 663.969 37.296C664.481 32.688 663.713 28.592 661.665 24.88C659.489 20.912 656.033 17.456 651.937 14.64C646.049 10.544 639.777 7.34399 632.737 6.064C631.969 5.936 631.329 6.064 630.561 6.31999C629.793 6.576 629.025 6.83199 627.873 6.448C627.361 5.424 627.617 4.52799 628.129 3.632L628.641 2.864C630.049 1.328 632.737 1.58399 634.401 1.96799C642.081 3.504 649.249 6.96 655.649 11.824C659.873 15.024 663.457 19.12 665.761 23.728C668.193 28.336 669.089 33.712 668.193 39.344C667.041 46.384 664.097 52.784 660.257 58.8C657.057 63.664 652.833 68.528 648.353 73.136C655.137 68.656 661.281 65.84 669.217 61.104C676.513 56.624 683.553 53.936 691.617 50.864C692.769 50.48 694.433 51.248 693.793 52.784C693.537 53.424 693.025 53.808 692.513 54.064ZM757 4.784C755.848 5.03999 754.824 5.03999 753.8 5.03999C752.904 4.91199 751.88 5.03999 750.984 5.168C745.736 6.31999 740.744 8.112 736.136 10.8C731.016 13.872 726.152 17.84 721.928 22.576C720.904 26.8 720.264 31.664 721.032 36.144C721.544 39.216 722.696 42.16 725.128 44.464C732.808 51.888 741.512 57.136 750.6 61.36C751.368 61.872 752.136 62.896 751.496 63.92C742.408 72.624 731.912 79.792 720.904 84.656C717.576 86.064 713.096 86.704 709 85.936C706.696 85.424 704.392 84.272 702.728 82.608C701.96 81.84 701.192 81.072 700.68 80.176C700.168 79.28 699.912 78.256 700.424 76.848C701.32 77.104 701.704 77.488 702.088 77.872L702.984 79.024C704.52 80.432 706.184 81.328 708.232 81.968C710.92 82.736 714.12 82.736 716.808 81.84C721.416 80.432 725.768 78.128 729.992 75.568C735.496 72.112 740.616 67.888 745.736 63.536C741 60.72 734.984 57.52 729.608 53.68C724.872 50.352 720.904 46.384 718.472 41.392C716.68 37.68 715.784 33.456 716.552 28.592C717.576 22.192 719.368 14.64 721.928 9.13599C723.208 7.98399 726.536 8.49599 725.512 11.056C725.128 11.824 724.36 13.872 723.976 15.28C727.432 12.336 731.144 9.52 734.856 7.34399C739.848 4.272 745.224 1.84 751.112 0.815994C752.264 0.943993 753.544 0.815994 754.696 0.943993C755.848 1.2 756.872 1.58399 757.512 2.864C758.152 3.504 757.512 4.39999 757 4.784Z" fill="black"/>
</svg>
